<svg version="1.0" xmlns="http://www.w3.org/2000/svg"
 width="48.000000pt" height="48.000000pt" viewBox="0 0 48.000000 48.000000"
 preserveAspectRatio="xMidYMid meet">

<g transform="translate(0.000000,48.000000) scale(0.100000,-0.100000)"
fill="#000000" stroke="none">
<path d="M58 464 c-47 -25 -58 -61 -58 -188 0 -63 4 -117 8 -120 5 -3 18 -3
29 0 19 5 21 14 25 105 3 92 5 100 31 126 27 28 30 28 148 28 l121 0 29 -33
c28 -32 29 -35 29 -143 l0 -111 -39 -39 c-30 -30 -36 -42 -27 -53 23 -29 53
-28 88 3 l33 29 3 149 c6 254 -3 263 -238 263 -118 -1 -162 -4 -182 -16z"/>
<path d="M120 360 c-17 -17 -20 -33 -20 -109 l0 -88 31 -7 c58 -11 65 -9 42
17 -28 31 -34 65 -18 103 16 39 41 54 90 54 50 0 85 -36 85 -88 0 -43 -27 -87
-61 -97 -18 -6 -15 -9 18 -26 46 -24 48 -24 73 1 17 17 20 33 20 120 0 87 -3
103 -20 120 -17 17 -33 20 -120 20 -87 0 -103 -3 -120 -20z m238 -23 c4 -20
-25 -34 -40 -19 -15 15 -1 44 19 40 10 -2 19 -11 21 -21z"/>
<path d="M202 278 c-10 -13 -15 -34 -13 -55 0 -7 12 -20 25 -28 28 -19 58 -9
76 26 25 45 -55 96 -88 57z"/>
</g>
</svg>
